# xmcd
#
# Track frame offsets:
# 150
# 22953
# 49412
# 81440
#
# Disc length: 1585 seconds
#
# Revision: 1
# Processed by: cddbd v1.5.2PL0 Copyright (c) Steve Scherf et al.
# Submitted via: CedeCatalogueitor 2.6.0.6 http://personales.ya.com/cdcatalogueitor
#
DISCID=2c062f04
DTITLE=Telex - On The Road Again [CD Single)
DYEAR=1900
DGENRE=
TTITLE0=On The Road Again (Jo Bogaert Rmx)
TTITLE1=On The Road Again (Marco Passarani Rmx)
TTITLE2=On The Road Again (Telex Rmx)
TTITLE3=On The Road Again (Playgroup Rmx)
EXTD=
EXTT0=
EXTT1=
EXTT2=
EXTT3=
PLAYORDER=
